<?xml version="1.0" encoding="UTF-8" standalone="no"?>
<!-- Creator: CorelDRAW X7 -->

<svg
   xmlns:dc="http://purl.org/dc/elements/1.1/"
   xmlns:cc="http://creativecommons.org/ns#"
   xmlns:rdf="http://www.w3.org/1999/02/22-rdf-syntax-ns#"
   xmlns:svg="http://www.w3.org/2000/svg"
   xmlns="http://www.w3.org/2000/svg"
   xmlns:sodipodi="http://sodipodi.sourceforge.net/DTD/sodipodi-0.dtd"
   xmlns:inkscape="http://www.inkscape.org/namespaces/inkscape"
   xml:space="preserve"
   width="0.626295in"
   height="0.895417in"
   version="1.1"
   style="shape-rendering:geometricPrecision; text-rendering:geometricPrecision; image-rendering:optimizeQuality; fill-rule:evenodd; clip-rule:evenodd"
   viewBox="0 0 1995 2852"
   id="svg2"
   inkscape:version="0.91 r13725"
   sodipodi:docname="wB-bg-WAV.svg"><metadata
     id="metadata17"><rdf:RDF><cc:Work
         rdf:about=""><dc:format>image/svg+xml</dc:format><dc:type
           rdf:resource="http://purl.org/dc/dcmitype/StillImage" /></cc:Work></rdf:RDF></metadata><sodipodi:namedview
     pagecolor="#ffffff"
     bordercolor="#666666"
     borderopacity="1"
     objecttolerance="10"
     gridtolerance="10"
     guidetolerance="10"
     inkscape:pageopacity="0"
     inkscape:pageshadow="2"
     inkscape:window-width="1920"
     inkscape:window-height="1023"
     id="namedview15"
     showgrid="false"
     inkscape:zoom="2.9284929"
     inkscape:cx="-52.435784"
     inkscape:cy="27.851271"
     inkscape:window-x="1920"
     inkscape:window-y="0"
     inkscape:window-maximized="1"
     inkscape:current-layer="_1187974000" /><defs
     id="defs4"><style
       type="text/css"
       id="style6"><![CDATA[
    .fil0 {fill:whitesmoke}
   ]]></style></defs><g
     id="Layer_x0020_1"
     style="opacity:1"><metadata
       id="CorelCorpID_0Corel-Layer" /><g
       id="_1187974000"
       style=""><path
         class="fil0"
         d="M410 0l279 0c31,15 60,35 85,61l718 717c41,42 41,109 0,150l-216 216 -145 134c-42,39 -108,39 -151,0l-289 -268c-79,-73 -201,-73 -281,0l-289 268c-33,31 -81,38 -121,20l0 -913 324 -324c26,-26 55,-46 86,-61z"
         id="path11"
         style="" /><path
         class="fil0"
         d="M0 2435l0 -1037c64,14 134,-2 186,-50l289 -268c43,-39 109,-39 151,0l289 268c80,73 202,73 281,0l289 -268c43,-39 109,-40 152,0l176 167c143,136 280,193 85,388l-1124 1124c-123,124 -326,124 -450,0l-324 -324z"
         id="path13"
         style="" /></g></g></svg>